<?xml version="1.0" encoding="iso-8859-1"?>
<!-- Generator: Adobe Illustrator 19.0.0, SVG Export Plug-In . SVG Version: 6.00 Build 0)  -->
<svg version="1.1" id="Capa_1" xmlns="http://www.w3.org/2000/svg" xmlns:xlink="http://www.w3.org/1999/xlink" x="0px" y="0px"
	 viewBox="0 0 512 512" style="enable-background:new 0 0 512 512;" xml:space="preserve">
<g>
	<g>
		<path d="M368.226,352.709c-4.142,0-7.5,3.358-7.5,7.5v58.563c0,11.586-4.966,22.646-13.625,30.342l-42.335,37.631
			c-7.44,6.613-17.018,10.255-26.972,10.255h-43.587c-9.953,0-19.531-3.642-26.971-10.254L164.9,449.115
			c-8.659-7.697-13.625-18.757-13.625-30.343V360.21c0-4.142-3.358-7.5-7.5-7.5c-4.142,0-7.5,3.358-7.5,7.5v58.562
			c0,15.867,6.801,31.013,18.661,41.554l42.336,37.631C207.459,507.013,220.577,512,234.207,512h43.587
			c13.631,0,26.749-4.987,36.937-14.043l42.335-37.631c11.858-10.541,18.66-25.686,18.66-41.553V360.21
			C375.726,356.067,372.368,352.709,368.226,352.709z"/>
	</g>
</g>
<g>
	<g>
		<path d="M289.75,320.184l-17.855-44.641c-2.615-6.537-8.854-10.761-15.895-10.761s-13.28,4.224-15.895,10.761l-17.856,44.641
			c-2.113,5.281-1.47,11.246,1.718,15.956c3.189,4.71,8.488,7.522,14.176,7.522h35.713c5.688,0,10.987-2.812,14.176-7.522
			C291.22,331.43,291.863,325.465,289.75,320.184z M275.611,327.73c-0.235,0.348-0.776,0.931-1.755,0.931h-35.713
			c-0.979,0-1.52-0.583-1.755-0.931c-0.235-0.348-0.576-1.067-0.213-1.975l17.856-44.641c0.44-1.101,1.312-1.332,1.967-1.332
			c0.655,0,1.527,0.231,1.968,1.332l17.856,44.641C276.188,326.663,275.847,327.382,275.611,327.73z"/>
	</g>
</g>
<g>
	<g>
		<path d="M256,0C154.622,0,72.145,82.477,72.145,183.855c0,31.94,8.321,63.353,24.048,90.938v29.303
			c0,17.396,14.152,31.548,31.548,31.548h40.081c0.285,0,0.516,0.231,0.516,0.516v48.097c0,8.556,6.96,15.516,15.516,15.516h16.548
			v8.532c0,4.142,3.358,7.5,7.5,7.5c4.142,0,7.5-3.358,7.5-7.5v-8.532h17.064v8.532c0,4.142,3.358,7.5,7.5,7.5
			c4.142,0,7.5-3.358,7.5-7.5v-8.532h17.064v8.532c0,4.142,3.358,7.5,7.5,7.5c4.142,0,7.5-3.358,7.5-7.5v-8.532h17.064v8.532
			c0,4.142,3.358,7.5,7.5,7.5c4.142,0,7.5-3.358,7.5-7.5v-8.532h16.548c8.556,0,15.516-6.96,15.516-15.516V336.16
			c0-0.285,0.231-0.516,0.516-0.516h40.081c17.396,0,31.548-14.152,31.548-31.548v-29.302c15.731-27.586,24.052-59,24.052-90.939
			C439.855,82.477,357.378,0,256,0z M408.307,192.387c-4.142,0-7.5,3.358-7.5,7.5v104.21c0,9.125-7.423,16.548-16.548,16.548
			h-40.081c-8.556,0-15.516,6.96-15.516,15.516v48.097c0,0.285-0.231,0.516-0.516,0.516h-16.548v-8.533c0-4.142-3.358-7.5-7.5-7.5
			c-4.142,0-7.5,3.358-7.5,7.5v8.533h-17.064v-8.532c0-4.142-3.358-7.5-7.5-7.5c-4.142,0-7.5,3.358-7.5,7.5v8.532H247.47v-8.532
			c0-4.142-3.358-7.5-7.5-7.5c-4.142,0-7.5,3.358-7.5,7.5v8.532h-17.064v-8.532c0-4.142-3.358-7.5-7.5-7.5
			c-4.142,0-7.5,3.358-7.5,7.5v8.532h-16.548c-0.285,0-0.516-0.231-0.516-0.516v-48.097c0-8.556-6.96-15.516-15.516-15.516h-40.081
			c-9.125,0-16.548-7.423-16.548-16.548v-104.21c0-4.142-3.358-7.5-7.5-7.5c-4.142,0-7.5,3.358-7.5,7.5v38.568
			c-5.959-17.483-9.048-35.943-9.048-54.6C87.145,90.748,162.893,15,256,15s168.855,75.748,168.855,168.855
			c0,18.656-3.089,37.116-9.048,54.599v-38.567C415.807,195.745,412.449,192.387,408.307,192.387z"/>
	</g>
</g>
<g>
	<g>
		<path d="M234.03,207.99c-1.783-3.738-6.26-5.324-9.998-3.54c-3.739,1.783-5.324,6.26-3.54,9.998
			c7.395,15.501,4.222,34.057-7.894,46.174c-15.829,15.828-41.583,15.829-57.413,0c-7.668-7.668-11.891-17.863-11.891-28.707
			s4.223-21.038,11.891-28.706c12.117-12.116,30.673-15.289,46.173-7.894c3.739,1.784,8.215,0.198,9.999-3.54
			c1.784-3.739,0.199-8.215-3.54-9.999c-21.224-10.125-46.638-5.774-63.238,10.826c-10.501,10.5-16.284,24.462-16.284,39.312
			c0,14.85,5.783,28.812,16.284,39.313c10.838,10.838,25.076,16.258,39.312,16.258c14.237,0,28.475-5.419,39.313-16.258
			C239.804,254.628,244.155,229.214,234.03,207.99z"/>
	</g>
</g>
<g>
	<g>
		<path d="M378.319,207.989c-1.782-3.738-6.259-5.323-9.997-3.539c-3.739,1.783-5.324,6.26-3.54,9.998
			c7.395,15.502,4.223,34.058-7.894,46.174c-15.829,15.828-41.583,15.829-57.413,0c-7.668-7.668-11.891-17.863-11.891-28.707
			s4.223-21.038,11.891-28.706c12.117-12.117,30.673-15.289,46.173-7.894c3.739,1.784,8.215,0.198,9.999-3.54
			c1.784-3.739,0.199-8.215-3.54-9.999c-21.227-10.127-46.639-5.775-63.238,10.826c-10.501,10.5-16.284,24.462-16.284,39.312
			c0,14.85,5.783,28.812,16.284,39.313c10.84,10.84,25.074,16.259,39.312,16.258c14.235-0.001,28.476-5.42,39.313-16.258
			C384.094,254.627,388.445,229.213,378.319,207.989z"/>
	</g>
</g>
<g>
</g>
<g>
</g>
<g>
</g>
<g>
</g>
<g>
</g>
<g>
</g>
<g>
</g>
<g>
</g>
<g>
</g>
<g>
</g>
<g>
</g>
<g>
</g>
<g>
</g>
<g>
</g>
<g>
</g>
</svg>
